<svg xmlns="http://www.w3.org/2000/svg" xmlns:xlink="http://www.w3.org/1999/xlink" width="37" height="35" viewBox="0 0 37 35">
    <defs>
        <path id="hyw889waua" d="M32.4 16.527c1.842.265 3.292 1.694 3.557 3.515.328 2.266-1.26 4.373-3.558 4.701-2.297.329-4.425-1.249-4.754-3.515-.338-2.266 1.26-4.373 3.558-4.7v-1.08c0-2.32-1.758-4.204-3.907-4.204-2.086 0-3.833 1.831-3.896 4.076v11.658c0 4.394-3.367 7.962-7.497 7.962-4.14 0-7.507-3.568-7.507-7.962v-1.006c-.868 0-1.8-.625-1.8-2.372v-1.493C2.753 21.133 0 17.861 0 14.155v-1.238h1.196V5.208c.011-1.44 1.06-2.668 2.5-2.911.169-.508.55-.921 1.058-1.112.932-.36 1.98.085 2.34 1.006.37.921-.085 1.959-1.016 2.319-.932.36-1.98-.096-2.351-1.006-.784.201-1.324.9-1.324 1.704v7.709h1.8v1.26c.043 2.064 1.44 3.854 3.442 4.425 1.08.34 2.223.34 3.303 0 2.001-.571 3.399-2.36 3.452-4.425v-1.26h1.196l-.021-7.709c-.01-.794-.54-1.482-1.313-1.704-.19.487-.603.868-1.101 1.027-.942.307-1.948-.201-2.255-1.133-.307-.932.2-1.927 1.143-2.234.943-.307 1.948.201 2.255 1.133 1.42.254 2.457 1.471 2.467 2.9l.032 7.72H18v1.238c0 3.706-2.753 6.978-6.597 7.952V23.6c0 1.747-.931 2.372-1.8 2.372v1.006c0 3.737 2.827 6.776 6.3 6.776s6.3-3.039 6.3-6.776v-11.69h.032-.032c.074-2.89 2.361-5.24 5.093-5.24 2.816 0 5.103 2.424 5.103 5.4v1.08zM11.995 2.837c0 .328.276.593.604.593.328 0 .603-.265.603-.593 0-.328-.275-.593-.603-.593-.328 0-.604.265-.604.593zm-5.993 0c0-.328-.275-.593-.603-.593-.328 0-.604.265-.604.593 0 .328.276.593.604.593.328 0 .603-.265.603-.593zM1.196 14.102v.053c0 3.304 2.573 6.205 6.12 6.904.276.053.55.095.837.127.836.085 1.694.042 2.53-.127 3.547-.699 6.12-3.6 6.12-6.904v-.053h-1.207v.075c-.042 2.572-1.779 4.828-4.288 5.548-1.302.413-2.71.413-4.023 0-2.51-.72-4.236-2.976-4.289-5.548v-.075h-1.8zM7.803 23.6c0 .35.053 1.186.593 1.186h1.207c.54 0 .593-.837.593-1.186v-1.26c-.02 0-.053 0-.074.01h-.063c-.043.011-.085.011-.127.011-.022 0-.043.01-.064.01-.275.022-.561.043-.858.043h-.02c-.297 0-.583-.021-.869-.042-.01 0-.021-.01-.042-.01-.043 0-.085 0-.138-.011h-.053c-.032-.011-.063-.011-.085-.011v1.26zM28.8 20.635c0 1.63 1.344 2.965 2.996 2.965 1.662 0 2.996-1.334 3.007-2.965 0-1.64-1.345-2.964-3.007-2.964-1.652 0-2.996 1.323-2.996 2.964zm1.196 0c0-.984.805-1.779 1.8-1.779s1.8.795 1.8 1.78c0 .973-.805 1.778-1.8 1.778s-1.8-.805-1.8-1.779zm1.207 0c0 .328.265.593.593.593.339 0 .603-.265.603-.593 0-.328-.264-.593-.603-.593-.328 0-.593.265-.593.593z"/>
    </defs>
    <g fill="none" fill-rule="evenodd">
        <g>
            <g>
                <g>
                    <g>
                        <g>
                            <g transform="translate(-1010 -1518) translate(105.5 802) translate(541.5 690) translate(354) translate(0 16) translate(9.5 9.5)">
                                <use fill="#2682D6" xlink:href="#hyw889waua"/>
                            </g>
                        </g>
                    </g>
                </g>
            </g>
        </g>
    </g>
</svg>
