<svg xmlns="http://www.w3.org/2000/svg" xmlns:xlink="http://www.w3.org/1999/xlink" width="37" height="37" viewBox="0 0 37 37">
    <defs>
        <path id="3hzia49n5a" d="M27.235 3.991L18.233.051c-.153-.07-.327-.07-.48 0l-9.002 3.94c-.218.1-.36.31-.36.55v9.42c.003 2.12 1.021 4.1 2.737 5.34l6.221 4.49c.384.28.904.28 1.288 0l6.222-4.49c1.715-1.24 2.733-3.22 2.736-5.34v-9.42c0-.24-.141-.45-.36-.55zm-.84 9.97c-.003 1.73-.835 3.36-2.24 4.37l-6.162 4.45-6.163-4.45c-1.404-1.01-2.236-2.64-2.239-4.37v-9.03l8.402-3.68 8.402 3.68v9.03zm-8.642-11.29l-6.601 2.89c-.219.1-.36.31-.36.55v7.85c.002 1.35.649 2.61 1.74 3.4l5.11 3.68c.21.16.493.16.703 0l5.11-3.68c1.09-.79 1.738-2.05 1.74-3.4v-7.85c0-.24-.141-.45-.36-.55l-6.601-2.89c-.153-.07-.327-.07-.481 0zm6.242 3.83v7.46c-.002.96-.464 1.86-1.242 2.43l-4.759 3.43-4.759-3.43c-.779-.57-1.241-1.47-1.243-2.43v-7.46l6.002-2.62 6 2.62zm-20.33 10.39l1.297 3.03c1.011-.67 2.342-.6 3.279.17 1.01.93 2.172 1.67 3.436 2.2.795.29 1.49.79 2 1.46.87 1.13 1.334 2.51 1.316 3.93v1.12c.663 0 1.2.54 1.2 1.2v4.8c0 .66-.537 1.2-1.2 1.2H8.391c-.663 0-1.2-.54-1.2-1.2v-4.8c.001-.3.117-.6.325-.82l-3.698-3.69c-.544-.55-.986-1.18-1.303-1.89l-2.352-5.17c-.276-.62-.198-1.35.206-1.9.403-.55 1.071-.85 1.75-.77.68.07 1.268.5 1.545 1.13zm4.726 17.91h6.602v-4.8H8.391v4.8zm5.401-7.12c.019-1.15-.352-2.27-1.052-3.18-.367-.49-.868-.86-1.443-1.07-1.41-.57-2.707-1.39-3.829-2.42-.561-.46-1.367-.48-1.943-.03.216.32.464.62.739.9l2.742 2.74c.156.15.218.37.164.58-.055.21-.219.38-.429.43-.21.06-.433-.01-.584-.16l-2.74-2.74c-.644-.65-1.158-1.4-1.515-2.24l-1.342-3.13c-.112-.26-.37-.43-.655-.43-.243 0-.469.12-.6.32-.13.21-.15.47-.05.69l2.352 5.17c.258.57.617 1.09 1.06 1.53l4.163 4.16h4.962v-1.12zm-.599 4.12h-.6c-.332 0-.6.27-.6.6 0 .33.268.6.6.6h.6c.331 0 .6-.27.6-.6 0-.33-.269-.6-.6-.6zm22.63-13.37l-2.35 5.17c-.318.71-.76 1.34-1.303 1.89l-3.7 3.69c.209.22.326.52.326.82v4.8c0 .66-.537 1.2-1.2 1.2h-6.601c-.663 0-1.201-.54-1.201-1.2v-4.8c0-.66.538-1.2 1.2-1.2v-1.12c-.018-1.42.446-2.8 1.316-3.93.51-.67 1.206-1.18 2-1.46 1.264-.53 2.427-1.27 3.436-2.2.936-.78 2.268-.85 3.283-.18l1.295-3.02c.269-.64.86-1.08 1.547-1.16.686-.08 1.36.22 1.766.78.405.56.477 1.29.187 1.92zm-14.828 16.37h6.6v-4.8h-6.6v4.8zm1.2-6h4.962l4.162-4.16c.442-.44.8-.96 1.059-1.53l2.352-5.17c.1-.22.08-.48-.05-.68-.131-.21-.357-.33-.6-.33-.285 0-.543.17-.655.43l-1.342 3.13c-.357.84-.871 1.59-1.514 2.24l-2.741 2.74c-.236.22-.61.22-.842-.01-.231-.23-.234-.61-.007-.84l2.742-2.74c.277-.28.526-.58.743-.91-.578-.44-1.387-.43-1.947.04-1.122 1.03-2.42 1.85-3.83 2.42-.573.21-1.074.58-1.44 1.07-.7.91-1.07 2.03-1.052 3.18v1.12zm1.2 3h-.6c-.332 0-.6.27-.6.6 0 .33.268.6.6.6h.6c.33 0 .6-.27.6-.6 0-.33-.27-.6-.6-.6zm-9.483-18.96c.199-.27.575-.32.84-.12l1.893 1.42 4.449-6.67c.119-.18.324-.28.538-.27.214.01.405.14.5.33.095.2.08.42-.04.6l-4.8 7.2c-.091.14-.235.23-.398.26-.033.01-.067.01-.101.01-.13 0-.257-.04-.36-.12l-2.401-1.8c-.265-.2-.319-.58-.12-.84z"/>
    </defs>
    <g fill="none" fill-rule="evenodd">
        <g>
            <g>
                <g>
                    <g>
                        <g>
                            <g transform="translate(-656 -1779) translate(105.5 802) translate(541.5 690) translate(0 262) translate(0 16) translate(9.5 9.5)">
                                <use fill="#1ECE7A" xlink:href="#3hzia49n5a"/>
                            </g>
                        </g>
                    </g>
                </g>
            </g>
        </g>
    </g>
</svg>
