<svg xmlns="http://www.w3.org/2000/svg" xmlns:xlink="http://www.w3.org/1999/xlink" width="83" height="82" viewBox="0 0 83 82">
    <defs>
        <filter id="abp4jtzoka" width="130%" height="212.5%" x="-15%" y="-56.2%" filterUnits="objectBoundingBox">
            <feOffset dx="4" dy="4" in="SourceAlpha" result="shadowOffsetOuter1"/>
            <feGaussianBlur in="shadowOffsetOuter1" result="shadowBlurOuter1" stdDeviation="12"/>
            <feColorMatrix in="shadowBlurOuter1" result="shadowMatrixOuter1" values="0 0 0 0 0 0 0 0 0 0 0 0 0 0 0 0 0 0 0.08 0"/>
            <feMerge>
                <feMergeNode in="shadowMatrixOuter1"/>
                <feMergeNode in="SourceGraphic"/>
            </feMerge>
        </filter>
        <path id="ipmsn7od1b" d="M13.445 0c1.68 0 3.176.83 4.116 2.117C18.501.83 19.996 0 21.677 0h12.416c.568 0 1.029.478 1.029 1.054v27.56c0 .586-.46 1.054-1.03 1.054h-7.62l-1.92 3.415c-.285.497-.914.673-1.406.38l-.98-.575c-.657-.39-1.518.068-1.518.83v1.228c0 .576-.46 1.054-1.03 1.054h-4.115c-.568 0-1.029-.478-1.029-1.054v-1.268c0-.732-.88-1.17-1.458-.83l-1.04.615c-.236.137-.517.176-.78.108-.265-.078-.49-.254-.626-.488l-1.92-3.415H1.03C.46 29.668 0 29.2 0 28.615V1.054C0 .478.46 0 1.03 0zm5.145 19.122h-2.058v.185c0 2.352-2.57 3.854-4.571 2.664l-.123-.069-1.03 1.825.1.058c1.978 1.171 2.156 4.166.146 5.356l-.245.147 1.029 1.824.148-.088c1.974-1.17 4.546.322 4.546 2.654v.215h2.058v-.176c0-2.41 2.596-3.844 4.605-2.663l.089.058 1.03-1.824-.188-.117c-2.005-1.18-1.96-4.176.03-5.347l.157-.097-1.03-1.825-.082.05c-2.017 1.19-4.61-.254-4.61-2.645v-.185zm-1.029 4.224c1.702 0 3.087 1.415 3.087 3.161 0 1.747-1.385 3.161-3.087 3.161-1.702 0-3.087-1.414-3.087-3.16 0-1.747 1.385-3.162 3.087-3.162zM33.064 2.107H21.677c-1.702 0-3.087 1.425-3.087 3.171v11.737h1.029c.568 0 1.029.478 1.029 1.053v1.24c0 .76.867 1.21 1.524.819l.974-.576c.493-.292 1.122-.117 1.406.38l2.058 3.66c.285.497.115 1.15-.377 1.433l-1.049.625c-.628.37-.651 1.327-.029 1.697l.408.244c.074-.02.151-.029.23-.029h7.271V2.107zm-19.62 0H2.059v25.454h7.27c.08 0 .157.01.231.03l.465-.274c.608-.36.486-1.327-.145-1.707l-.99-.586c-.493-.283-.66-.936-.377-1.434l2.058-3.658c.284-.498.914-.673 1.406-.38l1.014.594c.638.38 1.484-.107 1.484-.839v-1.239c0-.575.46-1.053 1.03-1.053h1.028V5.278c0-1.746-1.385-3.17-3.087-3.17zm4.117 23.347c-.568 0-1.03.468-1.03 1.053 0 .576.462 1.054 1.03 1.054.568 0 1.03-.478 1.03-1.054 0-.585-.462-1.053-1.03-1.053zm-4.116-14.84c.569 0 1.03.479 1.03 1.054 0 .586-.461 1.064-1.03 1.064h-8.3c-.568 0-1.029-.478-1.029-1.064 0-.575.46-1.053 1.028-1.053zm16.533 0c.567 0 1.028.479 1.028 1.054 0 .586-.46 1.064-1.028 1.064h-8.3c-.57 0-1.03-.478-1.03-1.064 0-.575.46-1.053 1.03-1.053zM13.445 6.4c.569 0 1.03.468 1.03 1.054 0 .585-.461 1.053-1.03 1.053h-8.3c-.568 0-1.029-.468-1.029-1.053 0-.586.46-1.054 1.028-1.054zm16.533 0c.567 0 1.028.468 1.028 1.054 0 .585-.46 1.053-1.028 1.053h-8.3c-.57 0-1.03-.468-1.03-1.053 0-.586.46-1.054 1.03-1.054z"/>
    </defs>
    <g fill="none" fill-rule="evenodd">
        <g>
            <g>
                <g>
                    <g filter="url(#abp4jtzoka)" transform="translate(-174 -4617) translate(160 3517) translate(0 974) translate(0 116)">
                        <g>
                            <g transform="translate(24 20) translate(9.5 9.5)">
                                <use fill="#D69026" fill-rule="nonzero" xlink:href="#ipmsn7od1b"/>
                            </g>
                        </g>
                    </g>
                </g>
            </g>
        </g>
    </g>
</svg>
