<svg xmlns="http://www.w3.org/2000/svg" xmlns:xlink="http://www.w3.org/1999/xlink" width="37" height="33" viewBox="0 0 37 33">
    <defs>
        <path id="hg4wnza4ha" d="M17.297 2.19c0-.38.314-.69.703-.69.389 0 .703.31.703.69v5.497c0 .382-.314.691-.703.691-.389 0-.703-.309-.703-.69V2.19zm-6.754 8.23L6.565 6.532c-.275-.268-.72-.268-.995 0-.274.269-.274.702 0 .97L9.547 11.4c.276.268.72.268.996 0 .274-.268.274-.712 0-.98zm18.892-3.888c.276-.268.72-.268.995 0 .275.269.275.702 0 .97L26.453 11.4c-.276.268-.72.268-.995 0s-.275-.712 0-.98l3.977-3.888zM28.41 29.003h.84c1.163 0 2.11.918 2.11 2.063v2.743c0 .382-.315.691-.704.691H5.344c-.389 0-.703-.31-.703-.69v-2.744c0-1.145.946-2.063 2.109-2.063h.84l2.289-12.55c.425-2.29 2.463-3.95 4.843-3.95h6.556c2.38 0 4.416 1.66 4.843 3.95l2.29 12.55zM14.722 13.875c-1.7 0-3.155 1.186-3.458 2.826L9.018 29.003h17.964l-2.245-12.302c-.304-1.64-1.758-2.826-3.459-2.826h-6.556zM6.047 33.128h23.906v-2.062c0-.382-.315-.691-.703-.691H6.75c-.388 0-.703.31-.703.69v2.063zm16.171-14.437c0-.382.316-.691.703-.691.389 0 .703.31.703.69 0 .372-.314.682-.703.682-.387 0-.703-.31-.703-.681zm2.97 8.126l-1.03-5.558c-.07-.372-.437-.619-.818-.547-.383.062-.636.423-.567.794l1.033 5.559c.07.37.438.618.817.546.381-.062.635-.423.565-.794zM29.25 18h6.047c.389 0 .703.31.703.69 0 .372-.314.682-.703.682H29.25c-.389 0-.703-.31-.703-.681 0-.382.314-.691.703-.691zm-22.5 0H.703c-.389 0-.703.31-.703.69 0 .372.314.682.703.682H6.75c.389 0 .703-.31.703-.681 0-.382-.314-.691-.703-.691z"/>
    </defs>
    <g fill="none" fill-rule="evenodd">
        <g>
            <g>
                <g>
                    <g>
                        <g transform="translate(-656 -1519) translate(105.5 802) translate(541.5 690) translate(0 16) translate(9.5 9.5)">
                            <use fill="#D62642" xlink:href="#hg4wnza4ha"/>
                        </g>
                    </g>
                </g>
            </g>
        </g>
    </g>
</svg>
