<?xml version="1.0" encoding="UTF-8"?>
<svg width="375px" height="391px" viewBox="0 0 375 391" version="1.1" xmlns="http://www.w3.org/2000/svg" xmlns:xlink="http://www.w3.org/1999/xlink">
    <title>6FB5038C-D8D8-4DD8-B6A8-A48893AEC64A</title>
    <g id="Page-1" stroke="none" stroke-width="1" fill="none" fill-rule="evenodd">
        <g id="Siphome---Dekstop-1440" transform="translate(-147.000000, -1321.000000)" fill="#F2F5F9" fill-rule="nonzero">
            <g id="features" transform="translate(105.500000, 802.000000)">
                <g id="illustration" transform="translate(0.000000, 519.256396)">
                    <path d="M413.715,140.043604 C416.397,149.893604 416.722,160.163604 414.668,170.133604 C412.613,180.113604 408.229,189.553604 401.822,197.783604 C392.256,209.863604 378.62,218.883604 370.127,231.593604 C351.772,259.043604 361.625,296.513604 344.789,324.783604 C330.716,348.433604 301.562,360.053604 274.491,370.023604 C253.234,377.843604 231.764,385.723604 209.231,388.873604 C186.698,392.023604 162.465,390.023604 142.94,379.153604 C126.838,370.223604 115.008,356.053604 104.082,341.903604 C77.223,307.083604 52.948,269.183604 44.7,227.063604 C36.452,184.953604 46.74,137.713604 80.561,108.573604 C97.025,94.3836044 118.59,84.5936044 130.207,66.7536044 C142.398,48.0336044 142.568,21.9036044 161.519,8.8636044 C168.513,4.0436044 177.207,1.8036044 185.837,0.743604405 C206.615,-1.7363956 227.703,2.0236044 246.006,11.4736044 C264.574,21.1236044 279.816,36.4536044 300.042,42.6236044 C326.221,50.6136044 359.818,44.4736044 377.217,68.1236044 C391.193,87.1436044 407.508,117.893604 413.715,140.043604 Z" id="Path"></path>
                </g>
            </g>
        </g>
    </g>
</svg>