<?xml version="1.0" encoding="UTF-8"?>
<svg width="323px" height="315px" viewBox="0 0 323 315" version="1.1" xmlns="http://www.w3.org/2000/svg" xmlns:xlink="http://www.w3.org/1999/xlink">
    <title>2942B425-299E-40CA-B25D-E4FD8D6A30F5</title>
    <g id="Page-1" stroke="none" stroke-width="1" fill="none" fill-rule="evenodd">
        <g id="Siphome---Dekstop-1440" transform="translate(-208.000000, -1357.000000)">
            <g id="features" transform="translate(105.500000, 802.000000)">
                <g id="illustration" transform="translate(0.000000, 519.256396)">
                    <g id="people" transform="translate(103.000106, 36.483768)">
                        <path d="M131.934894,50.1498367 C138.410894,53.7798367 144.773894,55.5298367 147.759894,54.8098367 C155.249894,53.0198367 155.937894,27.5598367 150.142894,17.5298367 C144.348894,7.48983665 114.557894,3.11983665 113.056894,22.9998367 C112.535894,29.8998367 115.653894,36.0598367 120.261894,41.0898367 L111.999894,76.8698367 L135.999894,76.8698367 L131.934894,50.1498367 Z" id="Path" fill="#F7C2B2"></path>
                        <path d="M118.417894,45.5598367 C115.405894,33.1098367 106.824894,24.6198367 108.134894,19.0598367 C109.445894,13.4898367 115.120894,12.1398367 115.120894,12.1398367 C115.120894,12.1398367 118.056894,1.09983665 134.055894,2.74983665 C145.098894,1.71983665 154.219894,-1.75016335 161.796894,1.09983665 C167.476894,5.22983665 164.442894,18.5998367 151.822894,21.0198367 C147.945894,21.0198367 147.045894,22.8498367 140.575894,25.0898367 C137.495894,26.1498367 136.169894,31.6698367 136.169894,31.6698367 L133.245894,31.6698367 C133.245894,31.6698367 128.988894,25.1198367 124.850894,26.8498367 C120.712894,28.5898367 122.969894,35.2998367 122.969894,35.2998367 L121.528894,45.5598367 L118.417894,45.5598367 Z" id="Path" fill="#191847"></path>
                        <path d="M275.158894,303.569837 C255.442894,281.199837 242.102894,264.619837 235.137894,253.819837 C223.212894,235.329837 213.452894,218.879837 210.372894,212.599837 C203.027894,197.609837 227.281894,190.589837 232.770894,197.579837 C241.078894,208.159837 258.821894,241.449837 285.999894,297.459837 L275.158894,303.569837 Z" id="Path" fill="#F6C2B2"></path>
                        <path d="M254.192894,289.739837 C243.324894,293.839837 231.157894,288.649837 226.591894,277.969837 L198.064894,211.249837 C190.216894,195.609837 228.115894,185.329837 233.882894,192.609837 C241.945894,202.779837 256.843894,231.419837 268.013894,253.069837 C274.751894,266.129837 267.945894,284.559837 254.192894,289.739837 Z" id="Path" fill="#33B074"></path>
                        <path d="M137.032894,279.859837 C144.180894,270.169837 170.178894,237.579837 184.338894,224.099837 C188.407894,220.219837 192.378894,216.499837 196.133894,213.039837 C207.295894,202.729837 229.523894,220.049837 218.381894,229.429837 C190.634894,252.799837 150.150894,284.349837 146.768894,287.159837 C142.027894,291.099837 132.540894,285.949837 137.032894,279.859837 Z" id="Path" fill="#F6C2B2"></path>
                        <path d="M146.034894,280.149837 C142.026894,277.999837 136.710894,276.129837 134.064894,279.849837 C134.004894,279.929837 133.949894,280.019837 133.898894,280.099837 C131.595894,283.799837 133.514894,288.359837 137.360894,290.419837 C146.319894,295.229837 162.110894,303.699837 171.633894,308.809837 C176.370894,311.349837 185.675894,308.629837 181.303894,305.579837 C179.918894,304.609837 178.709894,303.749837 177.731894,303.049837 C175.917894,301.749837 174.325894,300.199837 172.973894,298.469837 L159.793894,281.599837 C158.553894,280.009837 156.155894,279.719837 154.439894,280.949837 C153.661894,281.499837 152.699894,281.769837 151.752894,281.639837 C150.136894,281.429837 147.572894,280.969837 146.034894,280.149837 Z" id="Path" fill="#AFB9C5"></path>
                        <path d="M275.536894,300.859837 C270.886894,300.859837 264.999894,301.809837 264.999894,306.459837 C264.999894,310.749837 268.988894,313.789837 273.277894,313.789837 C283.647894,313.789837 302.307894,313.789837 313.372894,313.789837 C318.707894,313.789837 325.064894,307.099837 319.764894,306.499837 C318.029894,306.299837 316.509894,306.119837 315.279894,305.969837 C313.029894,305.689837 310.834894,305.089837 308.739894,304.219837 L288.119894,295.679837 C286.239894,294.899837 284.081894,295.759837 283.256894,297.629837 C282.874894,298.489837 282.185894,299.169837 281.303894,299.499837 C279.787894,300.059837 277.315894,300.859837 275.536894,300.859837 Z" id="Path" fill="#AFB9C5"></path>
                        <path d="M185.013894,215.589837 C184.915894,215.549837 184.816894,215.529837 184.711894,215.519837 C181.838894,215.079837 138.597894,208.529837 123.580894,206.069837 C94.8458938,201.359837 85.9228938,187.249837 90.1598938,156.809837 C90.3638938,155.349837 91.6248938,154.269837 93.1018938,154.269837 L144.538894,154.269837 C144.800894,154.269837 145.018894,154.289837 145.270894,154.359837 C157.191894,157.779837 234.004894,189.619837 235.153894,190.099837 C235.190894,190.109837 235.185894,190.109837 235.221894,190.129837 C244.688894,194.539837 242.917894,207.459837 241.179894,211.719837 C241.083894,211.949837 202.712894,272.979837 194.519894,286.009837 C193.654894,287.389837 191.877894,287.779837 190.478894,286.949837 L151.536894,263.899837 C149.942894,262.959837 149.575894,260.809837 150.765894,259.389837 L184.744894,218.879837 C184.877894,218.719837 184.994894,218.549837 185.080894,218.359837 C185.386894,217.689837 186.026894,216.019837 185.013894,215.589837 Z" id="Path" fill="#36C982"></path>
                        <path d="M232.081894,112.109837 L209.724894,142.449837 L197.305894,129.329837 L221.995894,109.719837 C224.997894,105.749837 227.330894,102.249837 229.154894,99.5198367 C232.078894,95.1298367 233.694894,92.6998367 234.664894,93.4498367 C235.979894,94.4498367 235.402894,95.9598367 234.871894,97.3398367 C234.447894,98.4498367 234.051894,99.4798367 234.664894,100.129837 C235.556894,101.069837 237.865894,99.8398367 240.794894,98.2698367 C242.403894,97.4098367 244.198894,96.4498367 246.049894,95.6898367 C251.271894,93.5598367 250.544894,96.2898367 249.663894,97.8098367 C245.334894,102.639837 239.474894,107.409837 232.081894,112.109837 Z M69.9998938,136.389837 L49.5078938,132.609837 C35.6108938,166.649837 27.3258938,185.299837 24.6518938,188.559837 C22.6918938,190.959837 10.6028938,197.129837 2.41989384,200.429837 C-0.865106157,201.749837 -0.159106157,204.329837 0.803893843,205.149837 C6.87989384,210.359837 12.5288938,208.529837 18.6778938,206.549837 C20.4588938,205.969837 22.2808938,205.379837 24.1668938,204.949837 C29.0498938,203.819837 30.5358938,206.149837 31.9398938,208.359837 C33.1838938,210.309837 34.3628938,212.159837 37.7788938,211.419837 C37.6238938,210.799837 37.4328938,210.099837 37.2268938,209.349837 C35.8948938,204.479837 33.9308938,197.299837 36.8448938,193.129837 C38.3398938,190.989837 49.3918938,172.079837 69.9998938,136.389837 Z" id="Shape" fill="#F6C2B2"></path>
                        <path d="M227.758894,109.339837 C227.209894,110.489837 227.166894,111.799837 227.637894,112.979837 C228.108894,114.159837 229.057894,115.129837 230.282894,115.669837 C233.492894,117.129837 236.988894,117.969837 240.561894,118.149837 C242.990894,118.669837 246.330894,116.919837 248.039894,113.619837 C249.747894,110.309837 258.291894,94.1698367 261.804894,85.5298367 C262.070894,84.8998367 262.196894,84.2398367 262.175894,83.5698367 C262.154894,82.8998367 261.987894,82.2398367 261.683894,81.6298367 C261.379894,81.0298367 260.944894,80.4798367 260.407894,80.0398367 C259.869894,79.5898367 259.239894,79.2498367 258.555894,79.0398367 L248.183894,76.9498367 C246.955894,76.5998367 245.627894,76.6798367 244.454894,77.1698367 C243.282894,77.6698367 242.347894,78.5498367 241.830894,79.6398367 L227.758894,109.339837 Z" id="Path" fill="#3D3D54" fill-rule="nonzero"></path>
                        <path d="M258.772894,83.8298367 L243.463894,113.899837 C243.262894,114.249837 242.939894,114.529837 242.545894,114.689837 C242.150894,114.849837 241.710894,114.879837 241.295894,114.779837 L231.830894,111.639837 C231.469894,111.519837 231.074894,111.469837 230.758894,111.259837 C230.600894,111.159837 230.470894,111.029837 230.376894,110.869837 C230.282894,110.709837 230.228894,110.539837 230.218894,110.359837 C230.207894,110.179837 230.241894,109.999837 230.316894,109.839837 L244.666894,80.6798367 C244.866894,80.3298367 245.190894,80.0498367 245.584894,79.8898367 C245.978894,79.7298367 246.419894,79.6998367 246.834894,79.7998367 L257.835894,82.1798367 C258.025894,82.2098367 258.205894,82.2898367 258.362894,82.3898367 C258.518894,82.4998367 258.646894,82.6298367 258.736894,82.7898367 C258.826894,82.9498367 258.876894,83.1298367 258.883894,83.3098367 C258.889894,83.4898367 258.851894,83.6698367 258.772894,83.8298367 Z" id="Path" fill="#C3DBEE" fill-rule="nonzero"></path>
                        <path d="M125.605823,66.9398367 C125.608894,63.7198367 128.016894,61.0098367 131.207894,60.4998367 C133.190894,60.1898367 135.216894,60.7498367 136.590894,62.1898367 C153.810894,80.2398367 161.373894,117.979837 173.413894,123.159837 C184.124894,127.759837 192.544894,122.689837 208.785894,116.749837 C212.253894,115.479837 216.092894,116.059837 219.073894,118.169837 C224.643894,122.119837 225.508894,130.109837 220.277894,134.619837 C198.024894,153.829837 169.358894,161.939837 155.659894,154.249837 C132.137894,141.039837 125.580894,95.9898367 125.605823,66.9398367 Z" id="Path" fill="#446EC1"></path>
                        <path d="M87.9998938,162.349837 C87.9998938,162.349837 140.007894,162.349837 164.510894,162.349837 C168.007894,162.349837 167.348894,157.659837 166.842894,155.289837 C161.010894,127.969837 138.240894,98.5298367 138.240894,59.6398367 L116.171894,56.4298367 C97.9168938,83.6998367 91.6048938,117.289837 87.9998938,162.349837 Z" id="Path" fill="#F2F6F9"></path>
                        <path d="M115.721894,56.4298367 C115.083894,56.4298367 114.452894,56.5998367 113.900894,56.9098367 C67.7908938,83.5998367 38.8288938,123.939837 27.0158938,177.929837 C25.7748938,183.609837 29.6068938,189.069837 35.3198938,190.109837 C38.8798938,190.759837 42.5388938,189.559837 44.8788938,186.799837 C54.0788938,175.949837 64.9528938,160.169837 77.5038938,139.449837 C77.9188938,138.769837 79.0208938,139.249837 78.8028938,140.019837 C72.5258938,162.189837 90.5938938,181.859837 113.630894,181.859837 C129.543894,181.859837 143.667894,171.949837 143.270894,156.039837 C142.435894,122.569837 129.227894,75.6298367 124.869894,60.9798367 C124.055894,58.2398367 121.545894,56.4298367 118.692894,56.4298367 C118.546894,56.4298367 118.401894,56.4298367 118.257894,56.4398367 C117.419894,56.4998367 116.561894,56.4298367 115.721894,56.4298367 Z" id="Path" fill="#5079CA"></path>
                    </g>
                </g>
            </g>
        </g>
    </g>
</svg>