<?xml version="1.0" encoding="UTF-8"?>
<svg width="66px" height="77px" viewBox="0 0 66 77" version="1.1" xmlns="http://www.w3.org/2000/svg" xmlns:xlink="http://www.w3.org/1999/xlink">
    <title>A179C2E4-7AF0-4DF1-B7F7-1D0DC2BDB66A</title>
    <defs>
        <filter x="-15.0%" y="-56.2%" width="130.0%" height="212.5%" filterUnits="objectBoundingBox" id="filter-1">
            <feOffset dx="4" dy="4" in="SourceAlpha" result="shadowOffsetOuter1"></feOffset>
            <feGaussianBlur stdDeviation="12" in="shadowOffsetOuter1" result="shadowBlurOuter1"></feGaussianBlur>
            <feColorMatrix values="0 0 0 0 0   0 0 0 0 0   0 0 0 0 0  0 0 0 0.08 0" type="matrix" in="shadowBlurOuter1" result="shadowMatrixOuter1"></feColorMatrix>
            <feMerge>
                <feMergeNode in="shadowMatrixOuter1"></feMergeNode>
                <feMergeNode in="SourceGraphic"></feMergeNode>
            </feMerge>
        </filter>
        <path d="M17.2682927,0.751219512 C17.2682927,0.341463415 17.5960976,0 18,0 C18.4039024,0 18.7317073,0.341463415 18.7317073,0.751219512 L18.7317073,3.75609756 C18.7317073,4.16585366 18.4039024,4.49756098 18,4.49756098 C17.5960976,4.49756098 17.2682927,4.16585366 17.2682927,3.75609756 L17.2682927,0.751219512 Z M26.7804878,12 L29.7073171,12 C30.1112195,12 30.4390244,12.3414634 30.4390244,12.7512195 C30.4390244,13.1609756 30.1112195,13.502439 29.7073171,13.502439 L26.7804878,13.502439 C26.3765854,13.502439 26.0487805,13.1609756 26.0487805,12.7512195 C26.0487805,12.3414634 26.3765854,12 26.7804878,12 Z M9.2195122,12 L6.29268293,12 C5.88878049,12 5.56097561,12.3414634 5.56097561,12.7512195 C5.56097561,13.1609756 5.88878049,13.502439 6.29268293,13.502439 L9.2195122,13.502439 C9.62341463,13.502439 9.95121951,13.1609756 9.95121951,12.7512195 C9.95121951,12.3414634 9.62341463,12 9.2195122,12 Z M25.7609756,3.73658537 C26.0458537,3.44390244 26.5102439,3.44390244 26.795122,3.73658537 C27.0809756,4.02926829 27.0809756,4.50731707 26.795122,4.8 L24.7258537,6.91707317 C24.5843902,7.06341463 24.3970732,7.14146341 24.2097561,7.14146341 C24.022439,7.14146341 23.835122,7.06341463 23.6917073,6.91707317 C23.4058537,6.62439024 23.4058537,6.14634146 23.6917073,5.85365854 L25.7609756,3.73658537 Z M12.3092683,5.85365854 L10.24,3.73658537 C9.95414634,3.44390244 9.4897561,3.44390244 9.20487805,3.73658537 C8.92,4.02926829 8.92,4.50731707 9.20487805,4.8 L11.2721951,6.91707317 C11.4165854,7.06341463 11.6029268,7.14146341 11.7902439,7.14146341 C11.9785366,7.14146341 12.164878,7.06341463 12.3082927,6.91707317 C12.5941463,6.62439024 12.5941463,6.14634146 12.3092683,5.85365854 Z M21.4136585,21.0146341 C22.8790244,20.0195122 24.8517073,20.3609756 25.9053659,21.804878 C26.5385366,22.6731707 26.48,23.8731707 25.7678049,24.6731707 L19.844878,31.297561 C19.777561,31.3756098 19.7073171,31.4439024 19.635122,31.5219512 C19.9560976,31.6 20.195122,31.8926829 20.195122,32.2439024 L20.195122,35.2487805 C20.195122,35.6585366 19.8673171,36 19.4634146,36 C19.0595122,36 18.7317073,35.6585366 18.7317073,35.2487805 L18.7317073,32.995122 L9.95121951,32.995122 L9.95121951,35.2487805 C9.95121951,35.6585366 9.62341463,36 9.2195122,36 C8.81560976,36 8.48780488,35.6585366 8.48780488,35.2487805 L8.48780488,32.2439024 C8.48780488,31.8341463 8.81560976,31.4926829 9.2195122,31.4926829 L9.47512195,31.4926829 C7.98146341,30.2536585 7.02439024,28.3609756 7.02439024,26.2439024 L7.02439024,20.2536585 C7.02439024,19.004878 8.00878049,18 9.2195122,18 C9.50439024,18 9.77658537,18.0585366 10.0292683,18.1560976 C10.2819512,17.2 11.1365854,16.497561 12.1463415,16.497561 C12.4321951,16.497561 12.7043902,16.5560976 12.955122,16.6536585 C13.2087805,15.7073171 14.0634146,15.004878 15.0731707,15.004878 C15.3297561,15.004878 15.5765854,15.0439024 15.804878,15.1317073 L15.804878,12.7512195 C15.804878,11.5121951 16.7892683,10.497561 18,10.497561 C19.2107317,10.497561 20.195122,11.5121951 20.195122,12.7512195 L20.195122,21.8439024 L21.4136585,21.0146341 Z M18.764878,30.2829268 C18.0868293,31.0439024 17.1258537,31.4829268 16.1219512,31.4926829 L13.5463415,31.4926829 C10.7512195,31.4634146 8.48780488,29.1219512 8.48780488,26.2439024 L8.48780488,20.2536585 C8.48780488,19.8341463 8.81560976,19.502439 9.2195122,19.502439 C9.62341463,19.502439 9.95121951,19.8341463 9.95121951,20.2536585 L9.95121951,20.995122 C9.95121951,21.4146341 10.2790244,21.7463415 10.6829268,21.7463415 C11.0868293,21.7463415 11.4146341,21.4146341 11.4146341,20.995122 L11.4146341,18.7512195 C11.4146341,18.3317073 11.742439,18 12.1463415,18 C12.5502439,18 12.8780488,18.3317073 12.8780488,18.7512195 L12.8780488,20.995122 C12.8780488,21.4146341 13.2058537,21.7463415 13.6097561,21.7463415 C14.0136585,21.7463415 14.3414634,21.4146341 14.3414634,20.995122 L14.3414634,17.2487805 C14.3414634,16.8390244 14.6692683,16.497561 15.0731707,16.497561 C15.4770732,16.497561 15.804878,16.8390244 15.804878,17.2487805 L15.804878,20.995122 C15.804878,21.4146341 16.1326829,21.7463415 16.5365854,21.7463415 C16.9404878,21.7463415 17.2682927,21.4146341 17.2682927,20.995122 L17.2682927,12.7512195 C17.2682927,12.3414634 17.5960976,12 18,12 C18.4039024,12 18.7317073,12.3414634 18.7317073,12.7512195 L18.7317073,23.2487805 C18.7317073,23.5219512 18.8829268,23.7756098 19.12,23.9121951 C19.3570732,24.0390244 19.6468293,24.0195122 19.8702439,23.8731707 L22.2263415,22.2634146 C23.044878,21.7073171 24.1453659,21.8926829 24.7346341,22.702439 C24.9453659,22.9853659 24.9258537,23.395122 24.6878049,23.6585366 L18.764878,30.2829268 Z M12.8780488,12.7512195 C12.8780488,9.85365854 15.1756098,7.50243902 18,7.50243902 C20.8243902,7.50243902 23.1219512,9.85365854 23.1219512,12.7512195 C23.1219512,13.1609756 22.7941463,13.502439 22.3902439,13.502439 C21.9863415,13.502439 21.6585366,13.1609756 21.6585366,12.7512195 C21.6585366,10.6829268 20.0165854,9.00487805 18,9.00487805 C15.9834146,9.00487805 14.3414634,10.6829268 14.3414634,12.7512195 C14.3414634,13.1609756 14.0136585,13.502439 13.6097561,13.502439 C13.2058537,13.502439 12.8780488,13.1609756 12.8780488,12.7512195 Z" id="path-2"></path>
    </defs>
    <g id="Page-1" stroke="none" stroke-width="1" fill="none" fill-rule="evenodd">
        <g id="Siphome---Dekstop-1440" transform="translate(-181.000000, -4505.000000)">
            <g id="services" transform="translate(160.000000, 3517.000000)">
                <g id="1" transform="translate(0.000000, 974.000000)" filter="url(#filter-1)">
                    <g id="icon" transform="translate(24.000000, 20.000000)">
                        <g id="Icon/Line/Hand" transform="translate(9.500000, 9.500000)">
                            <mask id="mask-3" fill="white">
                                <use xlink:href="#path-2"></use>
                            </mask>
                            <use id="Shape" fill="#D62642" xlink:href="#path-2"></use>
                        </g>
                    </g>
                </g>
            </g>
        </g>
    </g>
</svg>