<?xml version="1.0" encoding="UTF-8"?>
<svg width="157px" height="42px" viewBox="0 0 157 42" version="1.1" xmlns="http://www.w3.org/2000/svg" xmlns:xlink="http://www.w3.org/1999/xlink">
    <title>22FF2B26-C084-4238-A98E-580189A7688E</title>
    <g id="Page-1" stroke="none" stroke-width="1" fill="none" fill-rule="evenodd">
        <g id="Siphome---Dekstop-1440" transform="translate(-119.000000, -7132.000000)" fill-rule="nonzero">
            <g id="logo" transform="translate(119.000000, 7132.000000)">
                <path d="M64.986,16.07 L68.523,16.07 C68.472,12.95 65.915,10.81 62.028,10.81 C58.202,10.81 55.398,12.92 55.415,16.09 C55.406,18.66 57.222,20.14 60.17,20.85 L62.071,21.32 C63.972,21.78 65.028,22.33 65.037,23.51 C65.028,24.78 63.818,25.65 61.943,25.65 C60.026,25.65 58.645,24.77 58.526,23.02 L54.955,23.02 C55.048,26.8 57.75,28.75 61.986,28.75 C66.247,28.75 68.753,26.71 68.761,23.51 C68.753,20.61 66.562,19.07 63.528,18.38 L61.96,18.01 C60.443,17.66 59.173,17.1 59.199,15.84 C59.199,14.72 60.196,13.89 62.003,13.89 C63.767,13.89 64.849,14.69 64.986,16.07 Z M71.175,28.5 L74.806,28.5 L74.806,15.41 L71.175,15.41 L71.175,28.5 Z M72.999,13.72 C74.082,13.72 74.968,12.89 74.968,11.88 C74.968,10.88 74.082,10.05 72.999,10.05 C71.925,10.05 71.039,10.88 71.039,11.88 C71.039,12.89 71.925,13.72 72.999,13.72 Z M77.714,33.41 L81.345,33.41 L81.345,26.4 L81.456,26.4 C81.959,27.49 83.058,28.71 85.172,28.71 C88.155,28.71 90.482,26.35 90.482,21.97 C90.482,17.47 88.053,15.24 85.18,15.24 C82.99,15.24 81.942,16.54 81.456,17.61 L81.294,17.61 L81.294,15.41 L77.714,15.41 L77.714,33.41 Z M81.268,21.95 C81.268,19.62 82.257,18.13 84.021,18.13 C85.82,18.13 86.774,19.69 86.774,21.95 C86.774,24.24 85.803,25.82 84.021,25.82 C82.274,25.82 81.268,24.29 81.268,21.95 Z M96.533,20.93 C96.541,19.24 97.572,18.26 99.055,18.26 C100.53,18.26 101.399,19.2 101.391,20.81 L101.391,28.5 L105.021033,28.5 L105.021033,20.16 C105.03,17.1 103.223,15.24 100.496,15.24 C98.51,15.24 97.18,16.18 96.584,17.72 L96.43,17.72 L96.43,11.05 L92.902,11.05 L92.902,28.5 L96.533,28.5 L96.533,20.93 Z M113.793,28.76 C117.765,28.76 120.237,26.04 120.237,22.01 C120.237,17.95 117.765,15.24 113.793,15.24 C109.822,15.24 107.35,17.95 107.35,22.01 C107.35,26.04 109.822,28.76 113.793,28.76 Z M113.81,25.94 C111.978,25.94 111.04,24.26 111.04,21.98 C111.04,19.7 111.978,18.01 113.81,18.01 C115.609,18.01 116.546,19.7 116.546,21.98 C116.546,24.26 115.609,25.94 113.81,25.94 Z M122.597,28.5 L126.228,28.5 L126.228,20.64 C126.228,19.19 127.148,18.23 128.359,18.23 C129.552,18.23 130.353,19.05 130.353,20.34 L130.353,28.5 L133.873,28.5 L133.873,20.51 C133.873,19.15 134.648,18.23 135.969,18.23 C137.129,18.23 137.998,18.95 137.998,20.41 L137.998,28.5 L141.62,28.5 L141.62,19.7 C141.62,16.86 139.933,15.24 137.495,15.24 C135.577,15.24 134.086,16.22 133.549,17.72 L133.413,17.72 C132.995,16.2 131.657,15.24 129.859,15.24 C128.094,15.24 126.756,16.18 126.211,17.72 L126.058,17.72 L126.058,15.41 L122.597,15.41 L122.597,28.5 Z M150.454,28.76 C153.692,28.76 155.874,27.18 156.386,24.75 L153.028,24.53 C152.661,25.53 151.724,26.05 150.513,26.05 C148.698,26.05 147.548,24.84 147.548,22.89 L147.548,22.88 L156.462,22.88 L156.462,21.89 C156.462,17.44 153.769,15.24 150.309,15.24 C146.457,15.24 143.96,17.97 143.96,22.01 C143.96,26.16 146.423,28.76 150.454,28.76 Z M147.548,20.63 C147.624,19.14 148.758,17.95 150.369,17.95 C151.945,17.95 153.036,19.07 153.045,20.63 L147.548,20.63 Z" id="Shape" fill="#1C57C9"></path>
                <path d="M3.19744231e-14,21 C3.19744231e-14,25.15 1.232,29.21 3.539,32.67 C5.847,36.12 9.126,38.81 12.964,40.4 C16.801,41.99 21.023,42.41 25.097,41.6 C29.17,40.79 32.912,38.79 35.849,35.85 C38.786,32.91 40.786,29.17 41.596,25.1 C42.407,21.02 41.991,16.8 40.401,12.96 C38.812,9.13 36.12,5.85 32.667,3.54 C29.214,1.23 25.153,0 21,0 L21,21 L3.19744231e-14,21 Z" id="Path" fill="#1ECE7A"></path>
                <path d="M33.135,21.5 C33.135,18.28 31.856,15.2 29.58,12.92 C27.305,10.64 24.218,9.37 21,9.37 C17.782,9.37 14.695,10.64 12.42,12.92 C10.144,15.2 8.866,18.28 8.866,21.5 L21,21.5 L33.135,21.5 Z" id="Path" fill="#1C57C9"></path>
            </g>
        </g>
    </g>
</svg>