<?xml version="1.0" encoding="UTF-8"?>
<svg width="30px" height="25px" viewBox="0 0 30 25" version="1.1" xmlns="http://www.w3.org/2000/svg" xmlns:xlink="http://www.w3.org/1999/xlink">
    <title>E9462942-6992-473D-9CEC-AA2BA84C1377</title>
    <g id="Page-1" stroke="none" stroke-width="1" fill="none" fill-rule="evenodd">
        <g id="Siphome---Dekstop-1440" transform="translate(-1078.000000, -7240.000000)" fill="#008EE8" fill-rule="nonzero">
            <g id="footer" transform="translate(119.000000, 7132.000000)">
                <g id="right" transform="translate(402.000000, 8.000000)">
                    <g id="sosmed" transform="translate(557.000000, 0.000000)">
                        <g id="ico-twitter" transform="translate(0.000000, 100.595000)">
                            <path d="M9.43,23.38 C20.76,23.38 26.95,14.38 26.95,6.58 C26.95,6.33 26.94,6.07 26.93,5.82 C28.13,4.99 29.18,3.95 30,2.77 C28.9,3.24 27.71,3.55 26.47,3.69 C27.74,2.96 28.71,1.81 29.17,0.43 C27.98,1.11 26.67,1.6 25.26,1.86 C24.14,0.72 22.54,0 20.77,0 C17.37,0 14.62,2.64 14.62,5.9 C14.62,6.36 14.67,6.81 14.77,7.25 C9.66,7 5.12,4.65 2.09,1.08 C1.56,1.95 1.25,2.96 1.25,4.05 C1.25,6.09 2.34,7.9 3.99,8.96 C2.98,8.93 2.03,8.66 1.21,8.22 C1.2,8.24 1.2,8.27 1.2,8.3 C1.2,11.15 3.33,13.54 6.14,14.08 C5.63,14.22 5.08,14.29 4.52,14.29 C4.12,14.29 3.74,14.25 3.36,14.18 C4.15,16.53 6.42,18.23 9.11,18.28 C7.01,19.86 4.35,20.81 1.47,20.81 C0.97,20.81 0.48,20.78 0,20.73 C2.72,22.4 5.96,23.38 9.43,23.38" id="Path"></path>
                        </g>
                    </g>
                </g>
            </g>
        </g>
    </g>
</svg>