<?xml version="1.0" encoding="UTF-8"?>
<svg width="412px" height="362px" viewBox="0 0 412 362" version="1.1" xmlns="http://www.w3.org/2000/svg" xmlns:xlink="http://www.w3.org/1999/xlink">
    <title>71D7784E-C351-4467-B46E-0D4D96316858</title>
    <g id="Page-1" stroke="none" stroke-width="1" fill="none" fill-rule="evenodd">
        <g id="Siphome---Dekstop-1440" transform="translate(-120.000000, -6382.000000)" fill-rule="nonzero">
            <g id="contact" transform="translate(120.000000, 6091.000000)">
                <g id="illustration" transform="translate(0.000000, 291.000000)">
                    <path d="M180.386,49.3952 C198.924,42.5008 221.492,48.4302 240.765,57.078 C301.296,84.2448 345.394,135.815 380.431,188.354 C393.116,207.379 405.166,227.24 409.935,248.478 C419.645,291.704 394.319,336.454 351.247,352.136 C336.599,357.474 320.507,359.663 304.391,360.882 C275.732,363.054 246.059,362.192 217.631,354.148 C197.356,348.399 178.178,339.152 159.784,328.936 C108.413,300.389 61.4994,263.318 27.7189,218.034 C12.9032,198.172 0.369336,175.781 0.00817841,152.864 C-0.35298,129.947 14.5735,106.919 39.1323,103.023 C49.2857,101.413 60.0261,103.088 70.5038,104.813 C85.931,107.355 101.567,110.028 116.818,108.919 C132.574,107.765 153.065,101.606 155.938,86.5567 C158.979,70.3986 161.873,56.2814 180.386,49.3952 Z" id="Path" fill="#008EFF" opacity="0.1"></path>
                    <path d="M359.654,87.5687 C359.653,89.2247 358.31,90.5665 356.654,90.5665 L347.103,90.5665 C345.447,90.5665 344.103,89.2234 344.103,87.5665 L344.103,78.2371 C344.103,76.5802 345.447,75.2371 347.103,75.2371 L356.661,75.2371 C358.319,75.2371 359.662,76.5816 359.661001,78.2393 L359.654,87.5687 Z M359.427,67.4532 L347.328,67.4532 C345.671,67.4532 344.311,66.0917 344.457,64.4413 C346.283,43.7222 366.96,44.358 366.96,29.9527 C366.96,21.6515 360.169,15.0011 351.872,15.0011 C344.621,15.0011 338.522,20.4776 337.1,27.2103 C336.757,28.8314 335.443,30.1889 333.787,30.1889 L324.694,30.1889 C323.039,30.1889 321.681,28.8456 321.843,27.1987 C322.131,24.2576 322.85,21.3693 323.982,18.628 C325.496,14.9623 327.718,11.6316 330.521,8.82695 C333.324,6.0223 336.653,3.79887 340.317,2.28415 C343.981,0.769437 347.908,-0.00676933 351.872,-1.22639676e-11 C368.538,-1.22639676e-11 382.045,13.3031 382.045,29.9527 C382.045,48.793 359.426,50.942 359.416,67.4416 C359.416,67.4478 359.421,67.4532 359.427,67.4532 Z" id="Shape" fill="#1ECE7A"></path>
                    <path d="M115.382,201.387 L108.06,201.387 L108.06,194.152 L115.382,194.152 L115.382,201.387 Z M115.271,190.506 L108.171,190.506 C108.171,179.296 118.821,179.949 118.821,172.849 C118.817,171.92 118.631,171.001 118.272,170.144 C117.913,169.288 117.389,168.51 116.729,167.856 C116.07,167.202 115.288,166.685 114.429,166.333 C113.57,165.981 112.649,165.803 111.721,165.807 C109.846,165.85 108.061,166.619 106.74,167.951 C105.419,169.283 104.665,171.075 104.637,172.952 L97.5373,172.952 C97.5844,169.224 99.0939,165.663 101.74,163.038 C104.387,160.413 107.958,158.934 111.685,158.919885 C115.411,158.905 118.994,160.356 121.661,162.961 C124.328,165.565 125.865,169.113 125.942,172.841 C125.921,181.71 115.271,182.72 115.271,190.489 L115.271,190.506 Z" id="Shape" fill="#008EFF" opacity="0.1"></path>
                    <path d="M333.576,246.965 L326.254,246.965 L326.254,239.75 L333.576,239.75 L333.576,246.965 Z M333.469,236.087 L326.369,236.087 C326.369,224.873 337.019,225.53 337.019,218.43 C337.016,217.502 336.829,216.583 336.47,215.726 C336.111,214.87 335.587,214.093 334.927,213.439 C334.268,212.785 333.486,212.268 332.627,211.917 C331.768,211.566 330.848,211.388 329.919,211.392 C328.037,211.426 326.241,212.192 324.912,213.527 C323.583,214.862 322.825,216.661 322.799,218.545 L315.699,218.545 C315.746,214.817 317.255,211.257 319.902,208.632 C322.548,206.007 326.12,204.528 329.846,204.513885 C333.573,204.499 337.156,205.95 339.823,208.554 C342.49,211.158 344.027,214.707 344.10301,218.435 C344.115,227.304 333.469,228.318 333.469,236.087 Z" id="Shape" fill="#008EFF" opacity="0.1"></path>
                    <path d="M204.53,162.67 L199.224,162.67 L199.224,157.451 L204.53,157.451 L204.53,162.67 Z M204.452,154.782 L199.306,154.782 C199.306,146.659 207.025,147.132 207.025,141.991 C207.022,141.318 206.886,140.652 206.626,140.031 C206.365,139.411 205.985,138.848 205.508,138.374 C205.03,137.901 204.463,137.526 203.841,137.271 C203.218,137.017 202.551,136.887 201.879,136.891 C200.517,136.918 199.219,137.474 198.259,138.441 C197.299,139.408 196.751,140.71 196.732,142.073 L191.585916,142.073 C191.575,139.341 192.649,136.718 194.572,134.779 C196.494,132.84 199.108,131.744 201.838,131.732916 C204.568,131.722 207.19,132.797 209.128,134.721 C211.066,136.644 212.161,139.259 212.171,141.991 C212.163,148.417 204.452,149.152 204.452,154.782 Z" id="Shape" fill="#008EFF" opacity="0.1"></path>
                    <path d="M295.164,170.036 L292.164,170.036 L292.164,167.08 L295.164,167.08 L295.164,170.036 Z M295.119,165.581 L292.193,165.581 C292.193,160.99 296.556,161.257 296.556,158.35 C296.556,157.97 296.48,157.593 296.334,157.242 C296.187,156.892 295.973,156.573 295.703,156.306 C295.432,156.039 295.112,155.828 294.759,155.685 C294.407,155.543 294.03,155.471 293.65,155.476 C292.88,155.492 292.147,155.806 291.604,156.352 C291.062,156.898 290.752,157.633 290.74,158.403 L287.831,158.403 C287.865,156.886 288.489,155.442 289.572,154.379 C290.654,153.315 292.109,152.717 293.626,152.710954 C295.143,152.705 296.602,153.292 297.693,154.347 C298.784,155.402 299.419,156.841 299.46505,158.358 C299.482,161.968 295.119,162.399 295.119,165.581 Z" id="Shape" fill="#008EFF" opacity="0.1"></path>
                    <path d="M331.031,324.539 L328.031,324.539 L328.031,321.582 L331.031,321.582 L331.031,324.539 Z M330.986,320.083 L328.076,320.083 C328.076,315.488 332.443,315.759 332.443,312.852 C332.437,312.085 332.128,311.352 331.582,310.813 C331.037,310.274 330.3,309.974 329.533,309.978 C328.763,309.993 328.029,310.306 327.486,310.853 C326.943,311.399 326.634,312.135 326.623,312.906 L323.714,312.906 C323.748,311.388 324.372,309.944 325.455,308.881 C326.537,307.818 327.992,307.219 329.509,307.212968 C331.026,307.208 332.485,307.795 333.576,308.849 C334.667,309.904 335.303,311.343 335.34805,312.86 C335.365,316.486 331.002,316.901 331.002,320.083 L330.986,320.083 Z" id="Shape" fill="#008EFF" opacity="0.1"></path>
                    <path d="M355.936,132.07 C353.781,128.513 350.625,125.671 346.865,123.898 C343.104,122.126 338.904,121.502 334.791,122.105 L334.791,137.243 L343.978,137.243 L351.168,135.423 L355.936,132.07 Z" id="Path" fill="#4C4981"></path>
                    <path d="M355.936,132.07 C353.781,128.513 350.625,125.671 346.865,123.898 C343.104,122.126 338.904,121.502 334.791,122.105 L334.791,137.243 L343.978,137.243 L351.168,135.423 L355.936,132.07 Z" id="Path" fill="#000000" opacity="0.1"></path>
                    <path d="M334.102,126.114 L345.362,134.006 C345.362,134.006 345.457,132.43 345.743,130.272 C346.293,126.114 347.484,124.395 350.279,118.878 C355.159,109.246 368.742,114.664 376.045,95.01 C362.829,91.8179 342.74,107.178 342.74,107.178 C342.74,107.178 341.45,107.623 339.388,111.886 C338.331,114.128 336.882,117.947 335.793,121.068 C334.789,123.882 334.102,126.114 334.102,126.114 Z" id="Path" fill="#F6C2B2"></path>
                    <polygon id="Path" fill="#4C4981" points="244.146 138.269 242.867 137.666 239.272 141.771 242.211 148.044 247.223 146.034 246.06 141.019"></polygon>
                    <path d="M207.14,169.191 L209.36,171.592 L210.809,173.158 L219.267,182.255 L241.122,184.72 L252.752,181.61 L255.628,180.838 C255.628,180.838 255.628,174.998 255.11,167.995 C254.37,159.014 252.604,148.107 248.386,145.135 C246.273,143.48 244.587,141.344 243.469,138.904 C242.625,137.221 241.918,135.474 241.354,133.678 C241.27,133.445 241.206,133.223 241.132,132.99 C240.181,129.855 239.495,126.646 239.081,123.395 C239.081,123.395 236.29,121.851 232.41,120.052 C222.291,115.324 204.814,108.797 210.893,123.395 C211.787,125.533 212.549,127.724 213.177,129.954 C213.272,130.282 213.357,130.61 213.431,130.927 C215.461,139.052 214.118,143.982 212.606,146.7 C212.351,147.171 212.057,147.62 211.729,148.044 C211.316,148.611 210.82,149.114 210.259,149.535 L207.743,165.52 L207.531,166.842 L207.14,169.191 Z" id="Path" fill="#F6C2B2"></path>
                    <path d="M210.883,124.179 C212.035,126.95 210.322,121.915 210.883,124.179 C215.493,127.458 226.351,136.799 232.452,136.799 C236.575,136.799 237.812,136.048 241.344,134.451 C240.275,131.103 239.514,127.665 239.071,124.179 C239.071,124.179 202.477,103.995 210.883,124.179 Z" id="Path" fill="#000000" opacity="0.1"></path>
                    <path d="M201.568,107.179 C201.573,114.145 204.154,120.864 208.813,126.041 C213.473,131.219 219.881,134.489 226.806,135.223 C227.779,135.318 228.762,135.381 229.756,135.381 C235.331,135.381 240.781,133.727 245.416,130.628 C250.052,127.529 250.456,122.501 252.589,117.348 C254.723,112.195 257.503,113.876 256.415,108.406 C255.328,102.935 253.63,91.1805 249.688,87.2363 C245.745,83.292 240.723,80.606 235.255,79.5177 C229.787,78.4295 224.119,78.9881 218.969,81.1227 C213.818,83.2573 209.416,86.8721 206.318,91.51 C203.221,96.1479 201.568,101.601 201.568,107.179 Z" id="Path" fill="#F6C2B2"></path>
                    <path d="M197.56,232.198 L201.578,242.681 C201.578,242.681 204.845,242.819 209.942,242.977 C227.144,243.527 265.049,244.226 266.74,239.804 C267.12,238.682 267.32,237.507 267.333,236.323 C267.555,229.585 264.414,219.239 264.414,219.239 C264.414,219.239 262.606,198.536 262.606,197.637 C262.606,196.738 264.161,182.234 264.161,182.234 L261.052,170.598 L252.393,164.515 C252.393,164.515 248.512,170.471 246.186,170.979 C243.86,171.486 240.752,174.353 240.752,174.353 C240.752,174.353 233.128,179.008 230.665,176.416 C228.201,173.824 209.075,162.442 209.075,162.442 L198.988,173.57 L197.56,232.198 Z" id="Path" fill="#000000" opacity="0.1"></path>
                    <path d="M197.56,233.805 L201.578,244.278 C201.578,244.278 204.845,244.426 209.942,244.585 L210.439,244.585 C212.638,244.659 215.154,244.733 217.84,244.786 C231.511,245.103 250.342,245.188 260.185,243.728 C263.886,243.199 266.307,242.438 266.709,241.401 C266.932,240.777 267.088,240.132 267.174,239.476 C267.237,238.989 267.28,238.418 267.301,237.921 C267.523,231.182 264.383,220.836 264.383,220.836 C264.383,220.836 262.575,200.133 262.575,199.234 C262.575,198.335 264.129,183.832 264.129,183.832 L261.02,172.195 L255.068,168.027 L252.361,166.123 C251.451,167.486 250.458,168.793 249.39,170.037 C248.555,171.158 247.439,172.037 246.155,172.586 C243.818,173.105 240.72,175.961 240.72,175.961 C240.72,175.961 233.097,180.616 230.633,178.024 C228.762,176.046 217.131,168.926 211.76,165.678 C210.111,164.673 209.043,164.049 209.043,164.049 L207.689,165.552 L198.956,175.178 L197.56,233.805 Z" id="Path" fill="#FFFFFF"></path>
                    <path d="M334.102,126.114 L345.362,134.006 C345.362,134.006 345.457,132.429 345.743,130.271 C340.182,127.923 336.798,122.729 335.826,121.068 C334.79,123.882 334.102,126.114 334.102,126.114 Z" id="Path" fill="#000000" opacity="0.1"></path>
                    <path d="M294.538,152.899 L296.991,152.243 C296.991,152.243 301.009,156.474 303.335,157.035 C305.661,157.596 310.567,160.78 310.567,160.78 L316.266,165.308 C316.266,165.308 320.495,165.964 319.237,162.98 C317.979,159.997 321.563,156.252 321.563,156.252 C321.563,156.252 328.805,141.379 328.805,138.269 C328.805,135.158 334.79,122.104 334.79,122.104 C334.79,122.104 342.297,136.724 355.999,132.069 C355.999,132.069 346.04,154.443 345.786,160.008 C345.532,165.572 338.934,181.091 338.934,181.091 C338.934,181.091 336.471,192.611 323.159,191.966 C323.159,191.966 304.794,195.383 300.787,191.966 C296.779,188.549 293.163,185.862 291.271,185.471 C289.378,185.079 287.655,182.889 287.655,182.889 L287.655,167.508 L294.538,152.899 Z" id="Path" fill="#4C4981"></path>
                    <path d="M317.555,167.509 C317.555,167.509 314.32,179.547 316.392,180.838 L317.555,167.509 Z" id="Path" fill="#000000" opacity="0.1"></path>
                    <path d="M209.942,244.532 C227.144,245.082 265.049,245.77 266.74,241.359 C267.12,240.237 267.32,239.062 267.333,237.878 L211.136,240.84 L209.942,244.532 Z" id="Path" fill="#000000" opacity="0.1"></path>
                    <path d="M190.582,305.159 L192.781,309.814 C192.781,309.814 193.088,311.199 193.479,313.4 C194.304,318.139 195.594,326.687 195.108,333.499 C194.463,343.464 195.108,346.25 195.108,346.25 C195.108,346.25 216.371,356.073 251.923,360.47 C266.362,362.256 279.906,361.985 279.906,361.985 C279.906,361.985 277.208,343.591 281.353,335.827 C284.176,330.537 286.163,306.926 286.227,291.396 C286.227,284.234 285.867,278.807 284.969,277.707 C282.124,274.216 269.976,239.285 269.976,239.285 L267.206,239.434 L259.805,239.825 L217.724,242.046 L211.115,242.396 L210.417,244.511 L190.582,305.159 Z" id="Path" fill="#444053"></path>
                    <path d="M169.638,289.629 L169.247,293.776 C169.247,293.776 190.085,286.984 189.028,278.638 C187.971,270.291 189.028,271.233 189.028,271.233 L172.281,272.65 L169.638,289.629 Z" id="Path" fill="#4C4981"></path>
                    <path d="M169.638,289.629 L169.247,293.776 C169.247,293.776 190.085,286.984 189.028,278.638 C187.971,270.291 189.028,271.233 189.028,271.233 L172.281,272.65 L169.638,289.629 Z" id="Path" fill="#000000" opacity="0.1"></path>
                    <path d="M303.334,176.3 C302.664,177.057 302.121,177.918 301.727,178.849 C301.06,181.482 301.1,184.245 301.844,186.857 L305.185,178.796 C305.766,177.421 306.348,176.046 307.045,174.734 C307.352,174.174 309.276,171.836 309.054,171.349 C308.462,169.974 303.958,175.528 303.334,176.3 Z" id="Path" fill="#000000" opacity="0.1"></path>
                    <path d="M245.14,144.341 C245.14,144.341 244.886,156.253 246.821,161.69 C247.434,163.383 248.385,166.503 249.422,170.005 C250.553,173.887 251.79,178.235 252.742,181.642 C253.693,185.048 254.328,187.333 254.328,187.333 C254.328,187.333 258.694,222.92 259.826,239.877 C259.826,240.174 259.826,240.48 259.889,240.766 C259.952,241.718 260.058,242.713 260.217,243.739 C262.733,260.58 277.25,286.551 282.124,288.624 C283.644,289.322 285.032,290.278 286.227,291.449 C286.227,284.287 285.867,278.86 284.969,277.76 C282.124,274.269 269.976,239.338 269.976,239.338 L267.206,239.486 C267.269,238.999 267.311,238.428 267.333,237.931 C267.555,231.192 264.414,220.846 264.414,220.846 C264.414,220.846 262.606,200.144 262.606,199.245 C262.606,198.345 264.161,183.842 264.161,183.842 L261.052,172.205 L255.099,168.037 C254.359,159.056 252.594,148.149 248.375,145.177 C246.262,143.522 244.576,141.386 243.458,138.946 C242.623,139.062 244.146,138.322 244.146,138.322 L245.14,144.341 Z" id="Path" fill="#000000" opacity="0.1"></path>
                    <path d="M242.866,137.666 C243.944,137.297 245.09,137.172 246.222,137.3 C247.354,137.429 248.443,137.806 249.411,138.407 C252.393,140.522 258.208,140.342 259.762,139.962 C261.317,139.581 277.472,137.497 278.794,138.015 C280.115,138.533 282.674,136.206 284.355,139.316 C286.036,142.426 286.808,144.098 288.489,144.87 C290.171,145.642 293.152,148.107 292.719,148.626 C292.285,149.144 296.948,152.243 296.948,152.243 L287.517,182.922 C287.517,182.922 293.596,221.724 296.567,225.088 C299.538,228.452 325.918,272.047 316.476,279.812 C309.002,285.693 301.091,290.997 292.814,295.68 C291.757,296.199 288.035,289.217 282.865,287.016 C277.694,284.816 261.655,255.703 260.661,239.148 C259.667,222.592 255.1,185.725 255.1,185.725 C255.1,185.725 249.538,165.541 247.603,160.103 C245.668,154.666 245.922,142.754 245.922,142.754 L242.866,137.666 Z" id="Path" fill="#4C4981"></path>
                    <path d="M190.582,305.159 L192.781,309.813 C192.781,309.813 193.088,311.199 193.479,313.399 C193.871,313.35 194.24,313.184 194.537,312.923 C197.772,310.332 216.74,290.803 217.681,273.465 C218.347,260.675 218.03,249.652 217.819,244.744 C217.755,243.199 217.692,242.268 217.692,242.067 C217.692,242.067 202.953,224.21 204.634,217.884 C206.315,211.558 210.195,177.685 210.195,177.685 L210.766,173.242 L211.75,165.731 L214.097,147.557 L211.665,148.128 C211.252,148.696 210.757,149.199 210.195,149.62 L207.679,165.604 L198.946,175.231 L197.518,233.837 L201.536,244.31 C201.536,244.31 204.803,244.458 209.899,244.617 L210.396,244.617 L190.582,305.159 Z" id="Path" fill="#000000" opacity="0.1"></path>
                    <path d="M182.441,208.417 C182.441,208.417 186.057,206.989 186.311,208.417 C186.565,209.845 187.22,212.934 187.22,212.934 C187.22,212.934 186.575,220.445 189.335,223.417 C192.094,226.39 192.507,238.936 192.507,238.936 C192.507,238.936 196.863,251.356 194.801,255.238 C194.05,256.645 192.887,263.701 191.724,272.164 C190.984,277.453 190.255,283.261 189.61,288.572 C188.436,298.219 187.559,306.206 187.559,306.206 C187.559,306.206 189.895,314.743 193.131,312.152 C196.366,309.56 215.334,290.031 216.265,272.693 C216.899,260.517 216.645,249.938 216.434,244.723 C216.349,242.512 216.265,241.264 216.265,241.264 C216.265,241.264 201.526,223.407 203.207,217.07 C204.888,210.733 208.768,176.871 208.768,176.871 L209.445,171.635 L210.174,166.007 L210.344,164.769 L212.68,146.785 C212.268,146.88 197.762,150.16 195.848,152.075 C193.934,153.989 182.103,156.729 182.103,156.729 C180.318,157.214 178.696,158.168 177.406,159.493 C176.115,160.817 175.203,162.464 174.765,164.261 C174.649,164.621 174.564,165.002 174.48,165.393 C172.925,172.904 173.422,173.803 172.365,175.104 C171.308,176.406 182.441,208.417 182.441,208.417 Z" id="Path" fill="#4C4981"></path>
                    <path d="M189.525,288.56 C194.812,287.503 202.657,285.059 202.477,279.664 C202.318,274.618 196.25,272.798 191.651,272.153 C190.911,277.421 190.181,283.25 189.525,288.56 Z" id="Path" fill="#000000" opacity="0.1"></path>
                    <path d="M173.126,285.874 C173.338,286.329 174.183,286.72 175.389,287.069 C178.217,287.742 181.09,288.213 183.985,288.476 C183.985,288.476 201.959,287.048 201.705,278.892 C201.515,273.042 193.395,271.487 188.838,271.138 C187.829,271.043 186.816,271.001 185.803,271.011 C185.803,271.011 172.354,284.202 173.126,285.874 Z" id="Path" fill="#F6C2B2"></path>
                    <path d="M173.127,285.874 C173.338,286.329 174.184,286.72 175.389,287.069 C180.073,280.796 186.607,272.746 189.81,272.037 L188.838,271.138 C187.829,271.043 186.816,271.001 185.803,271.011 C185.803,271.011 172.355,284.202 173.127,285.874 Z" id="Path" fill="#000000" opacity="0.1"></path>
                    <path d="M177.651,174.237 L172.365,175.019 C170.456,178.383 168.337,181.623 166.021,184.72 C164.6,186.487 163.785,188.664 163.695,190.93 C163.695,190.93 155.934,202.439 153.481,203.73 C151.028,205.021 147.275,213.822 147.275,213.822 C147.275,213.822 141.195,217.831 141.195,222.359 C141.088,226.135 140.699,229.897 140.032,233.615 C139.895,234.26 140.931,242.289 143.521,246.309 C146.112,250.329 148.702,259.194 148.565,260.781 C148.427,262.368 155.807,270.619 157.869,273.2 C159.59,275.614 161.104,278.169 162.394,280.838 L169.246,293.776 C169.246,293.776 183.731,272.428 189.028,271.264 C189.028,271.264 183.086,265.573 180.115,264.536 C177.144,263.5 174.289,255.016 174.162,253.027 C174.035,251.038 171.445,244.617 168.738,243.506 C166.032,242.395 164.594,241.179 165.757,239.359 C166.92,237.54 165.757,234.07 165.757,234.07 C165.757,234.07 173.39,223.978 174.427,218.202 C175.463,212.426 182.441,208.501 182.441,208.501 L186.448,198.663 L177.651,174.237 Z" id="Path" fill="#4C4981"></path>
                    <path d="M158.419,222.529 C155.494,220.058 151.812,218.661 147.984,218.573 C150.437,218.996 153.016,219.535 154.814,221.249 C155.52,221.991 156.154,222.799 156.706,223.661 C157.32,224.539 162.31,230.886 163.05,229.881 C164.287,228.411 159.423,223.386 158.419,222.529 Z" id="Path" fill="#000000" opacity="0.1"></path>
                    <path d="M174.712,164.176 C175.233,164.858 175.833,165.476 176.499,166.017 C178.614,167.699 181.415,169.117 181.68,171.772 C181.606,172.634 181.714,173.503 181.997,174.321 C182.674,175.485 184.334,175.379 185.655,175.157 C186.771,175.056 187.839,174.662 188.753,174.015 C190.138,172.83 190.265,170.714 191.322,169.222 C191.965,168.452 192.776,167.841 193.693,167.436 C194.61,167.03 195.608,166.842 196.609,166.884 C198.586,166.821 200.553,167.265 202.53,167.35 C203.801,167.414 205.075,167.329 206.326,167.096 C206.739,167.033 207.148,166.948 207.552,166.842 C208.436,166.624 209.299,166.331 210.132,165.964 C210.563,165.793 210.983,165.595 211.39,165.372 C212.714,164.692 213.94,163.838 215.038,162.833 C216.973,161.056 218.58,158.601 218.421,155.967 C218.326,154.349 217.597,152.857 217.364,151.26 C216.571,146.69 219.606,142.374 222.894,139.105 C224.205,137.804 225.6,136.545 226.912,135.222 C228.953,133.338 230.565,131.036 231.638,128.473 C232.52,125.745 232.808,122.859 232.484,120.01 C232.187,117.122 232.105,114.215 232.24,111.315 C233.213,101.032 241.989,93.1509 250.765,88.8665 L251.156,88.6655 C248.552,85.6761 245.348,83.2699 241.752,81.6038 C238.156,79.9377 234.249,79.0493 230.286,78.9966 C226.324,78.9439 222.395,79.7281 218.755,81.298 C215.116,82.8679 211.849,85.1882 209.167,88.1073 C206.485,91.0264 204.449,94.4787 203.191,98.2387 C201.933,101.999 201.483,105.982 201.868,109.928 C202.253,113.874 203.466,117.695 205.428,121.14 C207.389,124.585 210.055,127.578 213.251,129.922 C213.346,130.25 213.431,130.578 213.505,130.896 C215.535,139.02 214.192,143.95 212.68,146.669 C212.268,146.764 197.761,150.043 195.848,151.958 C193.934,153.873 182.103,156.613 182.103,156.613 C180.305,157.091 178.669,158.047 177.368,159.378 C176.067,160.709 175.15,162.367 174.712,164.176 Z" id="Path" fill="#000000" opacity="0.1"></path>
                    <path d="M253.017,81.2079 C252.435,80.5415 251.557,80.2029 250.965,79.5576 C249.136,77.5688 250.965,74.3212 250.299,71.6977 C249.58,68.7885 246.007,67.5191 243.025,67.8259 C240.043,68.1326 237.252,69.5079 234.27,69.8464 C229.639,70.3648 225.156,68.3548 220.642,67.1805 C216.127,66.0063 210.671,65.9428 207.563,69.4021 C204.454,72.8613 204.666,78.7536 200.796,81.2608 C199.009,82.4139 196.757,82.5408 194.822,83.3765 C192.705,84.4638 190.949,86.1434 189.768,88.211 C186.705,93.0241 185.357,98.7311 185.941,104.407 C186.268,107.475 187.157,110.458 187.516,113.526 C187.881,116.712 187.666,119.937 186.882,123.047 C186.068,126.22 184.302,129.648 181.141,130.663 C180.41,130.824 179.7,131.069 179.026,131.393 C177.197,132.536 177.44,135.223 177.905,137.317 L179.787,146.003 C177.979,147.378 175.167,146.785 173.443,148.235 C172.753,148.866 172.242,149.669 171.963,150.562 C171.113,152.991 171.021,155.621 171.699,158.103 C172.376,160.586 173.793,162.803 175.759,164.462 C177.873,166.144 180.675,167.562 180.94,170.207 C180.859,171.069 180.967,171.939 181.257,172.756 C181.923,173.92 183.594,173.814 184.915,173.592 C186.027,173.489 187.092,173.095 188.002,172.449 C189.398,171.264 189.514,169.149 190.572,167.657 C191.215,166.889 192.027,166.278 192.943,165.873 C193.86,165.467 194.857,165.278 195.858,165.319 C197.846,165.256 199.802,165.7 201.79,165.795 C206.374,165.983 210.85,164.365 214.256,161.289 C216.201,159.501 217.798,157.057 217.65,154.413 C217.554,152.805 216.825,151.302 216.592,149.705 C215.81,145.146 218.834,140.819 222.122,137.55 C225.41,134.281 229.269,131.266 230.876,126.919 C232.885,121.534 230.94,115.525 231.479,109.813 C232.452,99.5197 241.217,91.6491 250.003,87.3542 C251.959,86.3492 255.29,83.7997 253.017,81.2079 Z" id="Path" fill="#444053"></path>
                </g>
            </g>
        </g>
    </g>
</svg>