<?xml version="1.0" encoding="UTF-8"?>
<svg width="26px" height="27px" viewBox="0 0 26 27" version="1.1" xmlns="http://www.w3.org/2000/svg" xmlns:xlink="http://www.w3.org/1999/xlink">
    <title>48BDB31B-AB8E-45E0-B774-61B4C7C9DB12</title>
    <g id="Page-1" stroke="none" stroke-width="1" fill="none" fill-rule="evenodd">
        <g id="Siphome---Dekstop-1440" transform="translate(-1078.000000, -7191.000000)" fill-rule="nonzero">
            <g id="footer" transform="translate(119.000000, 7132.000000)">
                <g id="right" transform="translate(402.000000, 8.000000)">
                    <g id="sosmed" transform="translate(557.000000, 0.000000)">
                        <g id="ico-facebook" transform="translate(0.000000, 51.595000)">
                            <path d="M24.56,-1.77635684e-15 L1.43,-1.77635684e-15 C0.64,-1.77635684e-15 0,0.63 0,1.4 L0,23.93 C0,24.7 0.64,25.33 1.44,25.33 L24.56,25.33 C25.36,25.33 26,24.7 26,23.93 C26,23.93 26,23.93 26,23.93 L26,1.4 C26,0.63 25.36,-1.77635684e-15 24.56,-1.77635684e-15 Z" id="Path" fill="#4267B2"></path>
                            <path d="M17.95,25.33 L17.95,15.54 L21.34,15.54 L21.85,11.7 L17.95,11.7 L17.95,9.26 C17.95,8.15 18.27,7.4 19.9,7.4 L21.96,7.4 L21.96,3.98 C21.6,3.93 20.37,3.83 18.94,3.83 C15.94,3.83 13.89,5.61 13.89,8.88 L13.89,11.7 L10.51,11.7 L10.51,15.54 L13.89,15.54 L13.89,25.33 L17.95,25.33 Z" id="Path" fill="#FFFFFF"></path>
                        </g>
                    </g>
                </g>
            </g>
        </g>
    </g>
</svg>