<?xml version="1.0" encoding="UTF-8"?>
<svg width="148px" height="42px" viewBox="0 0 148 42" version="1.1" xmlns="http://www.w3.org/2000/svg" xmlns:xlink="http://www.w3.org/1999/xlink">
    <title>B39D0F85-FF40-430B-8466-DE90B887C3ED</title>
    <g id="Page-1" stroke="none" stroke-width="1" fill="none" fill-rule="evenodd">
        <g id="Siphome---Dekstop-1440" transform="translate(-105.000000, -36.000000)" fill-rule="nonzero">
            <g id="topnav" transform="translate(104.500000, 35.999800)">
                <g id="logo" transform="translate(0.500000, 0.000000)">
                    <path d="M64.07,17.6015 L67.312,17.6015 C67.266,14.75 64.922,12.7812 61.359,12.7812 C57.852,12.7812 55.281,14.7187 55.297,17.625 C55.289,19.9843 56.953,21.3359 59.656,21.9843 L61.398,22.4218 C63.141,22.8437 64.109,23.3437 64.117,24.4218 C64.109,25.5937 63,26.3906 61.281,26.3906 C59.523,26.3906 58.258,25.5781 58.148,23.9765 L54.875,23.9765 C54.961,27.4375 57.438,29.2265 61.32,29.2265 C65.227,29.2265 67.523,27.3593 67.531,24.4296 C67.523,21.7656 65.516,20.3515 62.734,19.7265 L61.297,19.3828 C59.906,19.0625 58.742,18.5468 58.766,17.3984 C58.766,16.3671 59.68,15.6093 61.336,15.6093 C62.953,15.6093 63.945,16.3437 64.07,17.6015 Z M69.744,29 L73.072,29 L73.072,17 L69.744,17 L69.744,29 Z M71.416,15.4531 C72.408,15.4531 73.221,14.6953 73.221,13.7656 C73.221,12.8437 72.408,12.0859 71.416,12.0859 C70.432,12.0859 69.619,12.8437 69.619,13.7656 C69.619,14.6953 70.432,15.4531 71.416,15.4531 Z M75.738,33.5 L79.066,33.5 L79.066,27.0781 L79.168,27.0781 C79.629,28.0781 80.637,29.1953 82.574,29.1953 C85.309,29.1953 87.441,27.0312 87.441,23.0156 C87.441,18.8906 85.215,16.8437 82.582,16.8437 C80.574,16.8437 79.613,18.039 79.168,19.0156 L79.02,19.0156 L79.02,17 L75.738,17 L75.738,33.5 Z M78.996,23 C78.996,20.8593 79.902,19.4921 81.52,19.4921 C83.168,19.4921 84.043,20.9218 84.043,23 C84.043,25.0937 83.152,26.5468 81.52,26.5468 C79.918,26.5468 78.996,25.1406 78.996,23 Z M92.988,22.0625 C92.996,20.5156 93.941,19.6093 95.301,19.6093 C96.652,19.6093 97.449,20.4765 97.441,21.9531 L97.441,29 L100.770022,29 L100.770022,21.3593 C100.777,18.5468 99.121,16.8437 96.621,16.8437 C94.801,16.8437 93.582,17.7031 93.035,19.1171 L92.895,19.1171 L92.895,13 L89.66,13 L89.66,29 L92.988,29 L92.988,22.0625 Z M108.811,29.2343 C112.451,29.2343 114.717,26.7421 114.717,23.0468 C114.717,19.3281 112.451,16.8437 108.811,16.8437 C105.17,16.8437 102.904,19.3281 102.904,23.0468 C102.904,26.7421 105.17,29.2343 108.811,29.2343 Z M108.826,26.6562 C107.146,26.6562 106.287,25.1171 106.287,23.0234 C106.287,20.9296 107.146,19.3828 108.826,19.3828 C110.475,19.3828 111.334,20.9296 111.334,23.0234 C111.334,25.1171 110.475,26.6562 108.826,26.6562 Z M116.881,29 L120.209,29 L120.209,21.7968 C120.209,20.4687 121.053,19.5859 122.162,19.5859 C123.256,19.5859 123.99,20.3359 123.99,21.5156 L123.99,29 L127.217,29 L127.217,21.6718 C127.217,20.4296 127.928,19.5859 129.139,19.5859 C130.201,19.5859 130.998,20.25 130.998,21.5859 L130.998,29 L134.318,29 L134.318,20.9296 C134.318,18.3281 132.771,16.8437 130.537,16.8437 C128.779,16.8437 127.412,17.7421 126.92,19.1171 L126.795,19.1171 C126.412,17.7265 125.186,16.8437 123.537,16.8437 C121.92,16.8437 120.693,17.7031 120.193,19.1171 L120.053,19.1171 L120.053,17 L116.881,17 L116.881,29 Z M142.416,29.2343 C145.385,29.2343 147.385,27.789 147.854,25.5625 L144.775,25.3593 C144.439,26.2734 143.58,26.75 142.471,26.75 C140.807,26.75 139.752,25.6484 139.752,23.8593 L139.752,23.8515 L147.924,23.8515 L147.924,22.9375 C147.924,18.8593 145.455,16.8437 142.283,16.8437 C138.752,16.8437 136.463,19.3515 136.463,23.0546 C136.463,26.8593 138.721,29.2343 142.416,29.2343 Z M139.752,21.789 C139.822,20.4218 140.861,19.3281 142.338,19.3281 C143.783,19.3281 144.783,20.3593 144.791,21.789 L139.752,21.789 Z" id="Shape" fill="#FFFFFF"></path>
                    <path d="M2.84217094e-14,21 C2.84217094e-14,25.1534 1.232,29.2135 3.539,32.6669 C5.847,36.1204 9.126,38.812 12.964,40.4014 C16.801,41.9909 21.023,42.4067 25.097,41.5964 C29.17,40.7862 32.912,38.7861 35.849,35.8492 C38.786,32.9123 40.786,29.1705 41.596,25.0969 C42.407,21.0233 41.991,16.8009 40.401,12.9636 C38.812,9.1264 36.12,5.8466 32.667,3.5391 C29.214,1.2316 25.153,-1.52766688e-13 21,-1.52766688e-13 L21,21 L2.84217094e-14,21 Z" id="Path" fill="#1ECE7A"></path>
                    <path d="M31.562,20.9999 C31.562,18.1986 30.45,15.512 28.469,13.5311 C26.488,11.5503 23.801,10.4375 21,10.4375 C18.199,10.4375 15.512,11.5503 13.531,13.5311 C11.55,15.512 10.438,18.1986 10.438,20.9999 L21,20.9999 L31.562,20.9999 Z" id="Path" fill="#FFFFFF"></path>
                </g>
            </g>
        </g>
    </g>
</svg>